<?xml version="1.0" standalone="no"?><!DOCTYPE svg PUBLIC "-//W3C//DTD SVG 1.1//EN" "http://www.w3.org/Graphics/SVG/1.1/DTD/svg11.dtd"><svg t="1568883502218" class="icon" viewBox="0 0 1024 1024" version="1.1" xmlns="http://www.w3.org/2000/svg" p-id="7077" xmlns:xlink="http://www.w3.org/1999/xlink" width="200" height="200"><defs><style type="text/css"></style></defs><path d="M848.944762 858.697143H105.325714c-11.215238 0-20.48-9.264762-20.48-20.48 0-11.215238 9.264762-20.48 20.48-20.48h743.619048c11.215238 0 20.48 9.264762 20.48 20.48-0.487619 11.215238-9.264762 20.48-20.48 20.48zM848.944762 693.394286H187.733333c-11.215238 0-20.48-9.264762-20.48-20.48 0-11.215238 9.264762-20.48 20.48-20.48H848.457143c11.215238 0 20.48 9.264762 20.48 20.48 0 11.215238-8.777143 20.48-19.992381 20.48zM770.438095 528.091429H187.733333c-11.215238 0-20.48-9.264762-20.48-20.48s9.264762-20.48 20.48-20.48H770.438095c11.215238 0 20.48 9.264762 20.48 20.48s-9.264762 20.48-20.48 20.48z" fill="#ffffff" p-id="7078"></path><path d="M770.438095 528.091429c-11.215238 0-20.48-9.264762-20.48-20.48s9.264762-20.48 20.48-20.48c77.531429 0 140.921905-62.902857 140.921905-140.921905s-63.390476-140.434286-140.921905-140.434286c-77.531429 0-140.921905 62.902857-140.921905 140.921905 0 11.215238-9.264762 20.48-20.48 20.48-11.215238 0-20.48-9.264762-20.48-20.48 0-100.449524 81.432381-181.394286 181.394286-181.394286s181.394286 81.432381 181.394286 181.394286-80.944762 181.394286-180.906667 181.394286zM121.904762 280.380952h-16.579048c-11.215238 0-20.48-9.264762-20.48-20.48 0-11.215238 9.264762-20.48 20.48-20.48H121.904762c11.215238 0 20.48 9.264762 20.48 20.48-0.487619 11.215238-9.264762 20.48-20.48 20.48zM286.72 280.380952h-16.579048c-11.215238 0-20.48-9.264762-20.48-20.48 0-11.215238 9.264762-20.48 20.48-20.48h16.579048c11.215238 0 20.48 9.264762 20.48 20.48 0 11.215238-9.264762 20.48-20.48 20.48zM452.022857 280.380952h-16.579047c-11.215238 0-20.48-9.264762-20.48-20.48 0-11.215238 9.264762-20.48 20.48-20.48h16.579047c11.215238 0 20.48 9.264762 20.48 20.48 0 11.215238-9.264762 20.48-20.48 20.48zM121.904762 404.23619h-16.579048c-11.215238 0-20.48-9.264762-20.48-20.48 0-11.215238 9.264762-20.48 20.48-20.48H121.904762c11.215238 0 20.48 9.264762 20.48 20.48-0.487619 11.215238-9.264762 20.48-20.48 20.48zM286.72 404.23619h-16.579048c-11.215238 0-20.48-9.264762-20.48-20.48 0-11.215238 9.264762-20.48 20.48-20.48h16.579048c11.215238 0 20.48 9.264762 20.48 20.48 0 11.215238-9.264762 20.48-20.48 20.48zM452.022857 404.23619h-16.579047c-11.215238 0-20.48-9.264762-20.48-20.48 0-11.215238 9.264762-20.48 20.48-20.48h16.579047c11.215238 0 20.48 9.264762 20.48 20.48 0 11.215238-9.264762 20.48-20.48 20.48zM914.773333 610.986667h-16.579047c-11.215238 0-20.48-9.264762-20.48-20.48 0-11.215238 9.264762-20.48 20.48-20.48h16.579047c11.215238 0 20.48 9.264762 20.48 20.48 0 11.215238-9.264762 20.48-20.48 20.48z m-165.302857 0h-16.579047c-11.215238 0-20.48-9.264762-20.48-20.48 0-11.215238 9.264762-20.48 20.48-20.48h16.579047c11.215238 0 20.48 9.264762 20.48 20.48 0 11.215238-9.264762 20.48-20.48 20.48zM286.72 776.289524h-16.579048c-11.215238 0-20.48-9.264762-20.48-20.48 0-11.215238 9.264762-20.48 20.48-20.48h16.579048c11.215238 0 20.48 9.264762 20.48 20.48 0 11.215238-9.264762 20.48-20.48 20.48z m-164.815238 0h-16.579048c-11.215238 0-20.48-9.264762-20.48-20.48 0-11.215238 9.264762-20.48 20.48-20.48H121.904762c11.215238 0 20.48 9.264762 20.48 20.48-0.487619 11.215238-9.264762 20.48-20.48 20.48zM179.44381 693.394286c-57.051429 0-102.887619-46.32381-102.88762-102.887619S122.88 487.619048 179.44381 487.619048c11.215238 0 20.48 9.264762 20.48 20.48s-9.264762 20.48-20.48 20.48c-34.620952 0-62.415238 27.794286-62.415239 62.415238 0 34.133333 27.794286 62.415238 62.415239 62.415238 11.215238 0 20.48 9.264762 20.48 20.48 0 10.24-9.264762 19.504762-20.48 19.504762zM848.944762 858.697143c-11.215238 0-20.48-9.264762-20.48-20.48 0-11.215238 9.264762-20.48 20.48-20.48 34.133333 0.975238 63.390476-25.84381 64.365714-59.977143 0.975238-34.133333-25.84381-63.390476-59.977143-64.365714h-3.900952c-11.215238 0-20.48-9.264762-20.48-20.48 0-11.215238 9.264762-20.48 20.48-20.48 57.051429-1.462857 104.350476 43.398095 105.813333 100.449524 1.462857 57.051429-43.398095 104.350476-100.449524 105.813333h-5.851428z" fill="#ffffff" p-id="7079"></path></svg>