<?xml version="1.0" standalone="no"?><!DOCTYPE svg PUBLIC "-//W3C//DTD SVG 1.1//EN" "http://www.w3.org/Graphics/SVG/1.1/DTD/svg11.dtd"><svg t="1569551525766" class="icon" viewBox="0 0 1228 1024" version="1.1" xmlns="http://www.w3.org/2000/svg" p-id="2349" xmlns:xlink="http://www.w3.org/1999/xlink" width="239.84375" height="200"><defs><style type="text/css"></style></defs><path d="M970.826473 221.221236c-18.320291 0-36.621964 1.954909-54.514037 5.808873C859.117382 94.692073 725.680873 6.404655 581.296873 6.404655c-180.168145 0-329.988655 126.845673-359.8336 303.010909h-1.247418C102.4 309.415564 6.516364 405.224727 6.516364 522.966109c0 117.778618 95.865018 213.550545 213.680872 213.550546h750.610619c142.075345 0 257.694255-115.581673 257.694254-257.657019 0-142.056727-115.618909-257.6384-257.694254-257.6384zM1176.669091 478.859636c0 113.626764-92.327564 206.0288-205.861236 206.0288H220.215855c-89.236945 0-161.847855-72.610909-161.847855-161.903709 0-89.311418 72.610909-161.978182 161.847855-161.978182 5.957818 0 12.455564 0.484073 20.461381 1.452219l26.344728 3.2768 2.625163-26.288873a312.264145 312.264145 0 0 1 311.668364-281.451055c132.021527 0 250.526255 83.800436 294.874764 208.523637l8.378181 23.552 23.905746-7.5776a207.164509 207.164509 0 0 1 62.352291-9.644218c113.533673 0 205.861236 92.420655 205.861236 206.010181zM223.827782 878.610618l65.480145 118.355782c15.192436 27.461818 57.604655 2.941673 42.3936-24.538764L266.24 854.053236c-15.192436-27.4432-57.604655-2.941673-42.3936 24.576z m243.283782 0l65.480145 118.355782c15.192436 27.461818 57.623273 2.941673 42.412218-24.538764l-65.498763-118.3744c-15.173818-27.4432-57.623273-2.941673-42.3936 24.576z m255.702109 0l65.498763 118.355782c15.173818 27.461818 57.623273 2.941673 42.412219-24.538764l-65.480146-118.3744c-15.192436-27.4432-57.623273-2.941673-42.430836 24.576z m247.137745 0c21.820509 39.470545 43.678255 78.903855 65.498764 118.355782 15.173818 27.461818 57.623273 2.941673 42.412218-24.538764l-65.498764-118.3744c-15.192436-27.4432-57.623273-2.941673-42.412218 24.576z" fill="#9AB8D4" p-id="2350"></path></svg>