<?xml version="1.0" standalone="no"?><!DOCTYPE svg PUBLIC "-//W3C//DTD SVG 1.1//EN" "http://www.w3.org/Graphics/SVG/1.1/DTD/svg11.dtd"><svg t="1569550157982" class="icon" viewBox="0 0 1024 1024" version="1.1" xmlns="http://www.w3.org/2000/svg" p-id="2168" xmlns:xlink="http://www.w3.org/1999/xlink" width="200" height="200"><defs><style type="text/css"></style></defs><path d="M512 512m-295 0a295 295 0 1 0 590 0 295 295 0 1 0-590 0Z" fill="#FFD43D" p-id="2169"></path><path d="M512 170c-13.3 0-24-10.7-24-24V46c0-13.3 10.7-24 24-24s24 10.7 24 24v100c0 13.3-10.7 24-24 24zM270.2 270.2c-9.4 9.4-24.6 9.4-33.9 0l-70.7-70.7c-9.4-9.4-9.4-24.6 0-33.9 9.4-9.4 24.6-9.4 33.9 0l70.7 70.7c9.3 9.3 9.3 24.5 0 33.9zM170 512c0 13.3-10.7 24-24 24H46c-13.3 0-24-10.7-24-24s10.7-24 24-24h100c13.3 0 24 10.7 24 24zM270.2 753.8c9.4 9.4 9.4 24.6 0 33.9l-70.7 70.7c-9.4 9.4-24.6 9.4-33.9 0-9.4-9.4-9.4-24.6 0-33.9l70.7-70.7c9.3-9.3 24.5-9.3 33.9 0zM512 854c13.3 0 24 10.7 24 24v100c0 13.3-10.7 24-24 24s-24-10.7-24-24V878c0-13.3 10.7-24 24-24zM753.8 753.8c9.4-9.4 24.6-9.4 33.9 0l70.7 70.7c9.4 9.4 9.4 24.6 0 33.9-9.4 9.4-24.6 9.4-33.9 0l-70.7-70.7c-9.3-9.3-9.3-24.5 0-33.9zM854 512c0-13.3 10.7-24 24-24h100c13.3 0 24 10.7 24 24s-10.7 24-24 24H878c-13.3 0-24-10.7-24-24zM753.8 270.2c-9.4-9.4-9.4-24.6 0-33.9l70.7-70.7c9.4-9.4 24.6-9.4 33.9 0 9.4 9.4 9.4 24.6 0 33.9l-70.7 70.7c-9.3 9.3-24.5 9.3-33.9 0z" fill="#FFD43D" p-id="2170"></path></svg>