<?xml version="1.0" standalone="no"?><!DOCTYPE svg PUBLIC "-//W3C//DTD SVG 1.1//EN" "http://www.w3.org/Graphics/SVG/1.1/DTD/svg11.dtd"><svg t="1568883366777" class="icon" viewBox="0 0 1024 1024" version="1.1" xmlns="http://www.w3.org/2000/svg" p-id="6073" xmlns:xlink="http://www.w3.org/1999/xlink" width="200" height="200"><defs><style type="text/css"></style></defs><path d="M468.224 318.496a42.08 42.08 0 0 0 84.16 0 42.08 42.08 0 0 0-84.16 0zM577.152 313.856l260.64-210.56L733.312 0l-204.64 254.048a66.912 66.912 0 0 1 48.48 59.808z m-80.288-61.312L292.832 0 189.504 104.544l254.432 204.928a67.232 67.232 0 0 1 52.512-56.832l0.448-0.064z m-52.736 76.768l-257.952 207.776 103.328 104.544 207.744-257.152a67.232 67.232 0 0 1-53.056-54.784l-0.064-0.384z m78.72 55.232l207.104 257.056 104.576-103.328-258.048-208.416a67.392 67.392 0 0 1-53.216 54.624l-0.416 0.064z m-165.088 227.808l-34.272 313.696h374.176l-35.296-313.696-133.728-178.464-18.336-7.2-13.472 8.992zM290.464 985.568h437.472V1024H290.464z" p-id="6074" fill="#ffffff"></path></svg>